<svg id="Calque_1" data-name="Calque 1" xmlns="http://www.w3.org/2000/svg" viewBox="0 0 2783.33 998.81"><defs><style>.cls-1{fill:#2980ba;}</style></defs><text y="-45.85"/><path class="cls-1" d="M277.49,110.91H146.74v58.78H267V229.1H146.74V363H68.92V51.5H277.49Z" transform="translate(0 -45.85)"/><path class="cls-1" d="M623,363H455.26V308.6H500V105.89H455.26V51.5H623v54.39H578.26V308.6H623Z" transform="translate(0 -45.85)"/><path class="cls-1" d="M884.68,363V110.91h-92V51.5H1055v59.41h-92V363Z" transform="translate(0 -45.85)"/><path class="cls-1" d="M1504.05,363h-75.31L1308.67,145.85V363h-71.55V51.5h96l99.37,178.44V51.5h71.54Z" transform="translate(0 -45.85)"/><path class="cls-1" d="M1717.17,363V51.5h210.66v59.41H1795v54.6h122.38v59.41H1795v78.65h132.84V363Z" transform="translate(0 -45.85)"/><path class="cls-1" d="M2226.93,368.63q-35.78,0-62.86-6.9a320,320,0,0,1-50.31-17.15V270.52h7.11a174.63,174.63,0,0,0,51.67,30.54q28.24,10.68,54.81,10.67a139.35,139.35,0,0,0,17.67-1.46c7.33-1,13.21-2.51,17.68-4.6a38.92,38.92,0,0,0,13.81-9.94q5.64-6.37,5.65-16.84a23.21,23.21,0,0,0-9.21-19,58.76,58.76,0,0,0-22-10.66q-15.9-4.19-34-7.95a272.25,272.25,0,0,1-33.78-9.21q-36.2-12.75-51.88-34.31t-15.69-54q0-43.71,37-70.81t92.46-27.09a274.87,274.87,0,0,1,55.33,5.65,242.59,242.59,0,0,1,49.26,15.27V137.9h-6.9q-17.37-14.87-42.36-25.11a134.25,134.25,0,0,0-51.36-10.25,104.46,104.46,0,0,0-18.41,1.47,70.11,70.11,0,0,0-17.15,5.65,34.67,34.67,0,0,0-12.65,9.93,22.85,22.85,0,0,0-5.34,14.75q0,11.92,8.47,18.93t32.74,12.66q15.69,3.56,30.23,6.9a283,283,0,0,1,31.06,9.21q32.43,11.72,48.22,31.48t15.8,52.19q0,46.44-36.51,74.68T2226.93,368.63Z" transform="translate(0 -45.85)"/><path class="cls-1" d="M2648.2,368.63q-35.77,0-62.87-6.9A320.34,320.34,0,0,1,2535,344.58V270.52h7.12a174.51,174.51,0,0,0,51.67,30.54q28.23,10.68,54.8,10.67a139.35,139.35,0,0,0,17.68-1.46q11-1.45,17.68-4.6a38.8,38.8,0,0,0,13.8-9.94q5.66-6.37,5.65-16.84a23.23,23.23,0,0,0-9.2-19,58.73,58.73,0,0,0-22-10.66q-15.9-4.19-34-7.95a272.25,272.25,0,0,1-33.78-9.21q-36.2-12.75-51.88-34.31t-15.69-54q0-43.71,37-70.81t92.47-27.09a274.87,274.87,0,0,1,55.33,5.65A243,243,0,0,1,2771,66.77V137.9h-6.9q-17.37-14.87-42.36-25.11a134.29,134.29,0,0,0-51.36-10.25A104.46,104.46,0,0,0,2652,104a70,70,0,0,0-17.15,5.65,34.7,34.7,0,0,0-12.66,9.93,22.9,22.9,0,0,0-5.33,14.75q0,11.92,8.47,18.93T2658,165.93q15.69,3.56,30.23,6.9a283.6,283.6,0,0,1,31.06,9.21q32.43,11.72,48.22,31.48t15.79,52.19q0,46.44-36.5,74.68T2648.2,368.63Z" transform="translate(0 -45.85)"/><path class="cls-1" d="M1172.73,648.81q-20.32,0-34.58-4.2a171,171,0,0,1-26.79-10.36V603.12h1.75A89.81,89.81,0,0,0,1141,621a79.26,79.26,0,0,0,30,6.34q20.58,0,31.12-8.6t10.55-22.65q0-11.18-5.53-18.2t-17.57-10.42q-8.65-2.51-15.81-4.14t-18-4.4a85.14,85.14,0,0,1-17.32-6.4,48.7,48.7,0,0,1-13.56-10.16,43.85,43.85,0,0,1-9-14.5,53.5,53.5,0,0,1-3.2-19.27q0-22.71,17.69-38.09t45.19-15.38a135.47,135.47,0,0,1,29.68,3.14,118.86,118.86,0,0,1,25.92,8.91v29.75h-1.88q-8.91-8.16-22.84-14.25a72.42,72.42,0,0,0-29.25-6.08q-17.32,0-28,8.09T1138.59,506q0,11.92,6.28,18.95t18.2,10.29q7.9,2.13,19.33,4.83t18.95,5q19.34,5.9,28.24,17.82t8.91,29.38a55.56,55.56,0,0,1-4.45,21.58,50.93,50.93,0,0,1-12.49,18.08,65.49,65.49,0,0,1-20.4,12.55Q1189.8,648.82,1172.73,648.81Z" transform="translate(0 -45.85)"/><path class="cls-1" d="M1359,645.42V480.62h-62.76V458.53h150.37v22.09H1383.8v164.8Z" transform="translate(0 -45.85)"/><path class="cls-1" d="M1482.15,645.42l63-186.89h30.62l63,186.89h-26.23l-17-52.21H1524.2l-17,52.21ZM1588.71,572l-28.87-88.11L1531.1,572Z" transform="translate(0 -45.85)"/><path class="cls-1" d="M1737.15,645.42V480.62h-62.76V458.53h150.36v22.09H1762v164.8Z" transform="translate(0 -45.85)"/></svg>